<svg width="34" height="34" viewBox="0 0 34 34" fill="none" xmlns="http://www.w3.org/2000/svg">
<g clip-path="url(#clip0_1_132)">
<path d="M23.7691 16.7989L12.6135 10.3582C11.9524 9.97546 11.4701 9.34613 11.2723 8.60825C11.0746 7.87037 11.1777 7.0842 11.5588 6.42219C12.0315 5.60535 12.8089 5.00941 13.7204 4.76516C14.632 4.52091 15.6032 4.6483 16.421 5.11938L24.6409 9.86514C25.4577 10.3378 26.0536 11.1152 26.2979 12.0267C26.5421 12.9383 26.4147 13.9095 25.9437 14.7273L24.9267 16.4887C24.8143 16.6833 24.6292 16.8254 24.4121 16.8835C24.195 16.9417 23.9637 16.9112 23.7691 16.7989ZM15.5735 6.58722C15.1451 6.3409 14.6365 6.27441 14.1591 6.40232C13.6818 6.53023 13.2746 6.8421 13.0267 7.26964C12.8693 7.54215 12.8267 7.86599 12.9082 8.16994C12.9896 8.47388 13.1884 8.73302 13.4609 8.89035L23.8826 14.9073L24.4758 13.8798C24.7221 13.4514 24.7886 12.9428 24.6607 12.4654C24.5328 11.9881 24.2209 11.5809 23.7934 11.333L15.5735 6.58722Z" fill="white"/>
<path d="M17.5766 28.8805L6.421 22.4399C5.60417 21.9672 5.00823 21.1898 4.76397 20.2783C4.51972 19.3667 4.64712 18.3955 5.1182 17.5777L11.5589 6.42215C11.6713 6.2275 11.8564 6.08547 12.0735 6.0273C12.2906 5.96913 12.5219 5.99958 12.7165 6.11196C12.9112 6.22434 13.0532 6.40944 13.1114 6.62654C13.1695 6.84364 13.1391 7.07496 13.0267 7.26961L6.58604 18.4252C6.33972 18.8536 6.27323 19.3622 6.40114 19.8396C6.52904 20.3169 6.84092 20.7241 7.26846 20.972L18.424 27.4127C18.8525 27.659 19.3611 27.7255 19.8384 27.5976C20.3158 27.4697 20.723 27.1578 20.9709 26.7303L25.0387 19.6846C25.285 19.2562 25.3515 18.7476 25.2236 18.2703C25.0957 17.7929 24.7838 17.3857 24.3562 17.1378L21.5908 15.5412C21.3962 15.4288 21.2542 15.2437 21.196 15.0266C21.1378 14.8095 21.1683 14.5782 21.2806 14.3836C21.393 14.1889 21.5781 14.0469 21.7952 13.9887C22.0123 13.9305 22.2436 13.961 22.4383 14.0734L25.2037 15.67C26.0205 16.1426 26.6165 16.92 26.8607 17.8316C27.105 18.7431 26.9776 19.7144 26.5065 20.5321L22.4387 27.5777C21.9661 28.3946 21.1887 28.9905 20.2771 29.2348C19.3655 29.479 18.3943 29.3516 17.5766 28.8805V28.8805Z" fill="white"/>
<path d="M21.9588 26.7136L17.2617 24.0017C16.4441 23.5297 15.8476 22.7523 15.6033 21.8405C15.359 20.9286 15.4869 19.9571 15.9589 19.1396C16.4309 18.3221 17.2083 17.7255 18.1201 17.4812C19.0319 17.2369 20.0035 17.3648 20.821 17.8368L25.5181 20.5487C25.7127 20.661 25.8548 20.8461 25.9129 21.0632C25.9711 21.2803 25.9406 21.5117 25.8283 21.7063L23.1164 26.4034C23.004 26.598 22.8189 26.7401 22.6018 26.7982C22.3847 26.8564 22.1534 26.826 21.9588 26.7136ZM19.9735 19.3046C19.5453 19.0574 19.0364 18.9904 18.5588 19.1184C18.0812 19.2464 17.6739 19.5588 17.4267 19.987C17.1795 20.4153 17.1125 20.9242 17.2404 21.4018C17.3684 21.8794 17.6809 22.2866 18.1091 22.5339L22.0723 24.822L23.9367 21.5928L19.9735 19.3046Z" fill="white"/>
<path d="M19.7074 22.4781C20.1938 22.759 20.8157 22.5923 21.0966 22.1059C21.3774 21.6195 21.2107 20.9975 20.7243 20.7167C20.2379 20.4359 19.616 20.6026 19.3352 21.089C19.0543 21.5754 19.221 22.1973 19.7074 22.4781Z" fill="white"/>
</g>
<defs>
<clipPath id="clip0_1_132">
<rect width="24" height="24" fill="white" transform="translate(12.6064 0.607666) rotate(30)"/>
</clipPath>
</defs>
</svg>
