<svg width="26" height="27" viewBox="0 0 26 27" fill="none" xmlns="http://www.w3.org/2000/svg">
<path d="M22.4548 8.35712C21.6622 7.89957 20.7206 7.77564 19.8368 8.01246C18.9529 8.24929 18.1994 8.82744 17.7418 9.61994C17.2844 10.4123 17.1604 11.3541 17.3973 12.2377C17.6341 13.1216 18.2123 13.8751 19.0048 14.3327C19.7971 14.7901 20.7387 14.914 21.6226 14.6772C22.5063 14.4406 23.2599 13.8622 23.7174 13.0699C24.1741 12.2772 24.2976 11.3358 24.0609 10.4522C23.8241 9.56868 23.2465 8.8152 22.4547 8.3571L22.4548 8.35712ZM19.9048 12.7738L19.9047 12.774C19.5256 12.5551 19.2491 12.1947 19.1359 11.7719C19.0227 11.3494 19.082 10.8989 19.3007 10.52C19.5195 10.1411 19.88 9.86446 20.3026 9.75109C20.7253 9.63798 21.1756 9.69716 21.5547 9.91605C21.9336 10.1348 22.2101 10.4952 22.3234 10.9178C22.4367 11.3406 22.3772 11.791 22.1585 12.1699C21.9397 12.5489 21.5794 12.8256 21.1567 12.9386C20.7339 13.0519 20.2836 12.9927 19.9047 12.774L19.9048 12.7738Z" fill="white"/>
<path d="M17.5836 20.094C17.3847 20.4385 17.0572 20.6899 16.673 20.7928C16.2888 20.8958 15.8791 20.8419 15.5346 20.643L12.7392 19.0291L15.149 18.3834L14.6834 16.646L10.1754 17.8539L10.1754 17.8536C9.94504 17.9156 9.74875 18.0664 9.62958 18.2728C9.5103 18.4794 9.47785 18.7248 9.53931 18.9553L10.7472 23.4633L12.4846 22.9977L11.8392 20.5878L14.6347 22.2018C15.3927 22.6395 16.2934 22.7581 17.1388 22.5314C17.9843 22.3051 18.705 21.7519 19.1426 20.9941L21.2426 17.3567L19.6837 16.4566L17.5836 20.094Z" fill="white"/>
<path d="M6.99186 12.9397C6.19955 12.4823 5.25791 12.3583 4.37406 12.5952C3.4903 12.8318 2.73669 13.4101 2.27925 14.2024C1.8217 14.9949 1.69777 15.9366 1.93459 16.8204C2.17141 17.7043 2.74957 18.4578 3.54188 18.9152C4.33438 19.3728 5.27602 19.4967 6.15987 19.2599C7.04373 19.0231 7.79724 18.4449 8.25479 17.6524C8.7114 16.8599 8.83493 15.9185 8.59819 15.0349C8.36144 14.1513 7.78377 13.3978 6.99189 12.9397L6.99186 12.9397ZM4.4419 17.3564C4.06296 17.1376 3.78655 16.7772 3.67318 16.3546C3.55989 15.9318 3.61936 15.4814 3.83814 15.1025C4.05693 14.7236 4.41724 14.4469 4.8399 14.3338C5.26268 14.2205 5.71297 14.2797 6.09192 14.4985C6.47104 14.7173 6.74746 15.0777 6.86073 15.5005C6.97393 15.923 6.91465 16.3735 6.69587 16.7524C6.47708 17.1314 6.11659 17.408 5.694 17.5213C5.27133 17.6344 4.82103 17.5753 4.4419 17.3564V17.3564Z" fill="white"/>
<path d="M5.05415 9.39599L6.61308 10.296L8.41315 7.17822C8.61205 6.83371 8.93962 6.58233 9.32381 6.47938C9.708 6.37644 10.1177 6.43028 10.4622 6.62919L13.1226 8.16518L11.0442 8.62115L11.4173 10.3746L15.7753 9.42657C16.0156 9.37396 16.224 9.2253 16.3518 9.0152C16.4796 8.8051 16.516 8.55161 16.4522 8.31397L15.2443 3.80597L13.5068 4.27151L14.1575 6.68442L11.3621 5.07048C10.604 4.63281 9.70331 4.51415 8.85791 4.74082C8.01243 4.9672 7.29175 5.52032 6.85418 6.27821L5.05415 9.39599Z" fill="white"/>
</svg>
