<svg width="116" height="114" viewBox="0 0 116 114" fill="none" xmlns="http://www.w3.org/2000/svg">
<path d="M40.1958 104.386L23.4885 42.0331L31.786 43.8453L47.496 102.476L40.1958 104.386ZM68.7098 111.274L52.1351 49.4158L59.4583 47.5919L75.9985 109.321L68.7098 111.274ZM16.0536 98.8171L0.862433 42.123L7.23019 36.5657L22.9402 95.1961L16.0536 98.8171ZM56.2194 55.6316L2.59899 45.0015L10.051 38.7155L57.5717 48.0282L56.2403 55.626L56.2194 55.6316ZM98.0921 22.9424L41.8048 7.93058L42.8828 0.308497L99.9053 15.4462L98.113 22.9368L98.0921 22.9424ZM73.5048 113.586L16.0881 98.9461L17.8737 91.4515L74.8734 106.002L73.5048 113.586ZM7.96235 45.9165L0.862433 42.123L42.9174 0.437591L48.1809 6.21634L7.96235 45.9165ZM107.862 73.9174L93.4084 19.9773L100.005 15.4425L115.156 71.9859L107.862 73.9174ZM66.2257 85.5406L61.0932 79.7902L101.425 42.1871L106.559 47.9429L66.2315 85.5622L66.2257 85.5406ZM56.797 56.6356L51.8451 50.7214L93.6453 14.0334L98.5972 19.9476L56.797 56.6356ZM73.5043 113.563L68.5096 107.678L108.805 67.3229L115.121 71.8339L73.4985 113.542L73.5043 113.563Z" fill="url(#paint0_linear_1_138)" fill-opacity="0.45"/>
<defs>
<linearGradient id="paint0_linear_1_138" x1="42.8121" y1="0.327437" x2="73.1828" y2="113.672" gradientUnits="userSpaceOnUse">
<stop stop-color="white"/>
<stop offset="1" stop-color="white" stop-opacity="0"/>
</linearGradient>
</defs>
</svg>
