<svg width="34" height="29" viewBox="0 0 34 29" fill="none" xmlns="http://www.w3.org/2000/svg">
<path d="M13.5425 1.99929C15.0821 -0.667374 18.9311 -0.667376 20.4707 1.99929L32.595 22.9993C34.1346 25.666 32.2101 28.9993 29.1309 28.9993H4.88224C1.80304 28.9993 -0.121466 25.666 1.41813 22.9993L13.5425 1.99929Z" fill="url(#paint0_linear_1_181)"/>
<path d="M13.5425 1.99929C15.0821 -0.667374 18.9311 -0.667376 20.4707 1.99929L32.595 22.9993C34.1346 25.666 32.2101 28.9993 29.1309 28.9993H4.88224C1.80304 28.9993 -0.121466 25.666 1.41813 22.9993L13.5425 1.99929Z" fill="url(#paint1_linear_1_181)" fill-opacity="0.2"/>
<defs>
<linearGradient id="paint0_linear_1_181" x1="-4.99341" y1="2.0916" x2="41.0709" y2="7.4156" gradientUnits="userSpaceOnUse">
<stop stop-color="#A77EEE"/>
<stop offset="1" stop-color="#5F63F8"/>
</linearGradient>
<linearGradient id="paint1_linear_1_181" x1="17.0066" y1="-4.00071" x2="17.0066" y2="39.9993" gradientUnits="userSpaceOnUse">
<stop stop-color="white"/>
<stop offset="1" stop-color="white" stop-opacity="0"/>
</linearGradient>
</defs>
</svg>
