<svg width="34" height="29" viewBox="0 0 34 29" fill="none" xmlns="http://www.w3.org/2000/svg">
<path d="M13.5359 2C15.0755 -0.666664 18.9245 -0.666667 20.4641 2L32.5885 23C34.1281 25.6667 32.2036 29 29.1244 29H4.87565C1.79645 29 -0.128058 25.6667 1.41154 23L13.5359 2Z" fill="url(#paint0_linear_1_155)"/>
<path d="M13.5359 2C15.0755 -0.666664 18.9245 -0.666667 20.4641 2L32.5885 23C34.1281 25.6667 32.2036 29 29.1244 29H4.87565C1.79645 29 -0.128058 25.6667 1.41154 23L13.5359 2Z" fill="url(#paint1_linear_1_155)" fill-opacity="0.2"/>
<defs>
<linearGradient id="paint0_linear_1_155" x1="-5" y1="2.09231" x2="41.0643" y2="7.41631" gradientUnits="userSpaceOnUse">
<stop stop-color="#A77EEE"/>
<stop offset="1" stop-color="#5F63F8"/>
</linearGradient>
<linearGradient id="paint1_linear_1_155" x1="17" y1="-4" x2="17" y2="40" gradientUnits="userSpaceOnUse">
<stop stop-color="white"/>
<stop offset="1" stop-color="white" stop-opacity="0"/>
</linearGradient>
</defs>
</svg>
