<svg width="35" height="41" viewBox="0 0 35 41" fill="none" xmlns="http://www.w3.org/2000/svg">
<path d="M11.199 40.7672C11.0294 40.7218 10.818 40.6049 10.6635 40.5028L9.89084 39.9935C2.2489 34.8036 -1.23552 25.4103 1.15134 16.5024L3.9914 5.90314C4.15758 5.28295 4.648 4.80989 5.23239 4.66467L17.9121 1.23384C20.5217 0.543379 23.2933 1.28604 25.2081 3.18881L34.4736 12.4998C34.892 12.9744 35.0801 13.6293 34.8727 14.1778L32.0326 24.777C29.6458 33.6849 21.8749 40.0624 12.7184 40.7512L11.7947 40.8059C11.6099 40.8166 11.3684 40.8122 11.1988 40.7667L11.199 40.7672ZM7.11302 7.82746L4.54491 17.4118C2.55077 24.854 5.47781 32.708 11.8831 37.0831L12.1357 37.2718L12.4489 37.2347C20.1271 36.6332 26.5889 31.2948 28.6396 23.8679L31.2077 14.2836L22.6697 5.65093C21.663 4.65619 20.1926 4.26221 18.8802 4.63554L7.11302 7.82746Z" fill="white"/>
</svg>
